<svg width="23" height="25" viewBox="0 0 23 25" fill="none" xmlns="http://www.w3.org/2000/svg">
<path d="M10.4549 25C12.3482 25 13.9321 23.6551 14.2958 21.875H6.61394C6.97784 23.6551 8.56168 25 10.4549 25Z" fill="#292B5C"/>
<path d="M17.7854 12.499C17.7812 12.499 17.777 12.5 17.7728 12.5C13.7385 12.5 10.4549 9.22909 10.4549 5.2084C10.4549 4.10309 10.71 3.05824 11.1543 2.11868C10.9242 2.09694 10.6911 2.0834 10.4549 2.0834C6.41334 2.0834 3.13694 5.34783 3.13694 9.375V12.2791C3.13694 14.3406 2.23054 16.2865 0.640389 17.626C0.110337 18.0771 -0.124923 18.7958 0.0653521 19.4969C0.287021 20.3125 1.09617 20.8334 1.94513 20.8334H18.9594C19.8501 20.8334 20.6897 20.2583 20.8704 19.3886C21.0105 18.7157 20.7701 18.0437 20.2464 17.6052C18.7263 16.3355 17.8471 14.4697 17.7854 12.499Z" fill="#292B5C"/>
<path d="M23 5.2084C23 8.08487 20.6598 10.4166 17.7728 10.4166C14.8859 10.4166 12.5458 8.08487 12.5458 5.2084C12.5458 2.33192 14.8859 0 17.7728 0C20.6598 0 23 2.33192 23 5.2084Z" fill="#FFB800"/>
</svg>
