<svg width="25" height="26" viewBox="0 0 25 26" fill="none" xmlns="http://www.w3.org/2000/svg">
<path d="M21.8299 5.70931C22.2216 5.32 22.2236 4.68684 21.8343 4.2951C21.445 3.90336 20.8118 3.90139 20.4201 4.29069L21.8299 5.70931ZM11.35 0C10.7977 0 10.35 0.447715 10.35 1C10.35 1.55228 10.7977 2 11.35 2V0ZM13.65 2C14.2023 2 14.65 1.55228 14.65 1C14.65 0.447715 14.2023 0 13.65 0V2ZM13.5 7.85714C13.5 7.30486 13.0523 6.85714 12.5 6.85714C11.9477 6.85714 11.5 7.30486 11.5 7.85714H13.5ZM12.5 14.1429H11.5V15.1429H12.5V14.1429ZM15.95 15.1429C16.5023 15.1429 16.95 14.6951 16.95 14.1429C16.95 13.5906 16.5023 13.1429 15.95 13.1429V15.1429ZM23 13.5714C23 19.3251 18.3049 24 12.5 24V26C19.3977 26 25 20.4414 25 13.5714H23ZM12.5 24C6.69513 24 2 19.3251 2 13.5714H0C0 20.4414 5.60232 26 12.5 26V24ZM2 13.5714C2 7.81775 6.69513 3.14286 12.5 3.14286V1.14286C5.60232 1.14286 0 6.70145 0 13.5714H2ZM12.5 3.14286C18.3049 3.14286 23 7.81775 23 13.5714H25C25 6.70145 19.3977 1.14286 12.5 1.14286V3.14286ZM21.2549 6.28073L21.8299 5.70931L20.4201 4.29069L19.8451 4.86212L21.2549 6.28073ZM11.35 2H13.65V0H11.35V2ZM11.5 7.85714V14.1429H13.5V7.85714H11.5ZM12.5 15.1429H15.95V13.1429H12.5V15.1429Z" fill="#919BB0"/>
</svg>
