<svg width="22" height="21" viewBox="0 0 22 21" fill="none" xmlns="http://www.w3.org/2000/svg">
<path d="M1 9.14965C1 7.85241 1.63684 6.63676 2.70615 5.89285L8.70615 1.71863C10.0834 0.760455 11.9166 0.760456 13.2938 1.71863L19.2938 5.89285C20.3632 6.63677 21 7.85241 21 9.14965V17.0184C21 18.6651 19.6569 20 18 20H14.75C14.1977 20 13.75 19.555 13.75 19.0061V15.0307C13.75 14.4818 13.3023 14.0368 12.75 14.0368H9.25C8.69772 14.0368 8.25 14.4818 8.25 15.0307V19.0061C8.25 19.555 7.80228 20 7.25 20H4C2.34315 20 1 18.6651 1 17.0184V9.14965Z" stroke="white" stroke-width="2"/>
</svg>
