<svg width="27" height="28" viewBox="0 0 27 28" fill="none" xmlns="http://www.w3.org/2000/svg">
<path d="M8.34975 23.3262V6.13497C8.34975 5.46184 8.80909 4.8751 9.46387 4.71184L24.1724 1.04452C25.1007 0.81306 26 1.51331 26 2.46765V20.3924M8.34975 10.1239L20.1166 7.19002M8.3354 23.74C8.477 25.3542 6.95174 26.8058 4.92864 26.9823C2.90555 27.1588 1.15071 25.9934 1.00911 24.3793C0.867515 22.7651 2.39277 21.3135 4.41587 21.1369C6.43897 20.9604 8.1938 22.1258 8.3354 23.74ZM25.9857 20.8061C26.1273 22.4203 24.602 23.8719 22.5789 24.0485C20.5558 24.225 18.801 23.0596 18.6594 21.4454C18.5178 19.8312 20.043 18.3796 22.0661 18.2031C24.0892 18.0266 25.8441 19.192 25.9857 20.8061Z" stroke="#919BB0" stroke-width="2" stroke-linecap="round"/>
</svg>
