<?xml version="1.0" encoding="UTF-8"?>
<!DOCTYPE svg PUBLIC "-//W3C//DTD SVG 1.1//EN" "http://www.w3.org/Graphics/SVG/1.1/DTD/svg11.dtd">
<!-- Creator: CorelDRAW -->
<svg xmlns="http://www.w3.org/2000/svg" xml:space="preserve" width="4.8868mm" height="2.474mm" version="1.1" style="shape-rendering:geometricPrecision; text-rendering:geometricPrecision; image-rendering:optimizeQuality; fill-rule:evenodd; clip-rule:evenodd"
viewBox="0 0 488.68 247.4"
 xmlns:xlink="http://www.w3.org/1999/xlink"
 xmlns:xodm="http://www.corel.com/coreldraw/odm/2003">
 <defs>
  <style type="text/css">
   <![CDATA[
    .fil0 {fill:black}
   ]]>
  </style>
 </defs>
 <g id="Camada_x0020_1">
  <metadata id="CorelCorpID_0Corel-Layer"/>
  <g id="_2188251819136">
   <path class="fil0" d="M151.64 127.44c-9.17,-0.21 -29.79,-7.18 -33.58,-12.85 0.93,-1.39 0.88,-1.13 2.25,-2.18 1.14,-0.87 1.59,-1.41 2.56,-2.38 1.68,-1.69 3,-3.02 4.7,-4.69l22.59 -24.33c1.21,-1.59 2.79,-3.87 4.94,-4.45 0.14,1.61 0.55,2.34 0.89,3.55 3.65,13.06 1.3,36.66 -4.35,47.33zm-36.05 -14.33c-3.24,-0.86 -10.94,-10 -12.72,-12.48 -12.88,-17.96 -4.86,-49.26 20.13,-49.26 13.83,0 23.25,8.92 29.28,19.61l1.34 2.12 -13.7 15.44c-2,1.98 -2.9,2.99 -4.72,5.16l-19.61 19.41zm43.46 -1.48c0.28,-12.26 2.82,-5.99 0.41,-26.09 -0.21,-1.79 -0.6,-3.92 -1.02,-5.9 -1.57,-7.42 -3.56,-3.36 5.43,-13.57 1.17,-1.33 2.42,-2.43 3.7,-3.71 3.94,-3.91 5.44,-6.16 11.11,-11.62 1.47,-1.41 2.45,-1.91 3.96,-3.44 4.42,-4.47 11.19,-10.03 16.28,-13.85 4.94,-3.71 18.75,-13 23.85,-14.19l-4.32 5.06c-0.87,0.98 -1.59,1.48 -2.45,2.5 -19.63,23.44 -27.39,33.4 -43.21,59.53l-12.74 23.81c-0.05,0.09 -0.12,0.22 -0.18,0.31l-0.82 1.16zm-3.95 -40.5c-1.14,-4.92 -9.37,-13.17 -13.48,-16.65 -9.41,-7.98 -24.69,-11.43 -36.58,-5.75 -4,1.91 -4.72,2.86 -7.61,5.73 -11.86,11.76 -8.1,31.96 0.07,44.13 6.04,8.98 14.22,15.14 15.12,16.5 -3.09,4.61 -18.77,14.28 -24.76,16.72 -5.23,2.14 -9.33,3.99 -15.24,5.52 -23.71,6.12 -67.68,3.44 -67.68,-28.66 0,-22.72 24.68,-38.04 43.96,-38.04 9.7,0 15.66,0.15 23.63,5.52 15.95,10.77 8.75,42.89 -27.08,42.89 -3.15,0 -6,-1.15 -8.4,0 0.5,1.88 1.17,1.65 3.43,2 11.01,1.75 24.54,-1.74 31.26,-7.31 4.63,-3.84 8.92,-8.38 10.83,-14.37 2.47,-7.79 1.96,-15.69 -2.26,-22.6 -1.85,-3.04 -4.44,-5.46 -7.39,-7.42 -12.23,-8.11 -30.5,-8.46 -44.13,-3.02 -5.83,2.33 -9.13,4.48 -13.63,8.11 -8.06,6.51 -15.16,16.86 -15.16,27.82 0,7.67 0.72,14.38 4.74,20.46 3.32,5.03 5.76,7.6 10.77,10.96 9.36,6.27 22.55,9.08 34.38,9.08 21.9,0 35.98,-6.07 52.34,-15.83 4.89,-2.92 8.74,-6.76 13.36,-9.86 4.46,3 10.01,6.1 15.45,8.27 4.39,1.75 13.89,4.58 19.62,4.58l-4.94 12.35c2.61,0 12.11,-0.93 13.71,-1.6 2.2,-0.93 2.99,-5.94 5.55,-9.77 7.04,0 26.67,-5.79 26.67,-14.81 -2.84,0.76 -5.06,4.9 -10.85,7.91 -4.01,2.08 -8.73,3.94 -14.83,3.94 2.42,-4.57 7.19,-16.9 10.54,-23.54 1.4,-2.78 2.46,-5.42 3.78,-8.07l11.69 -22.89c3.77,-7.51 16.88,-28.82 21.9,-35.89l14.66 -19.91c1.18,-1.45 4.75,-5.46 5.1,-6.76 -3.54,0.82 -19.91,9.93 -22.82,11.75 -9.18,5.77 -12.24,8.29 -20.16,14.42l-6.79 6.05c-1.05,0.93 -1.4,0.99 -2.47,1.98 -1.53,1.41 -2.69,2.73 -4.18,4.21 -2.58,2.55 -5.79,4.86 -8.9,8.39l-8.56 9.22c-1.32,1.7 -2.5,3.66 -4.66,4.24z"/>
   <path class="fil0" d="M266.24 179.8c-5.52,0 -9.52,-0.5 -15.31,-0.5 0.73,-1 5.9,-3.2 7.41,-3.95 11.4,-5.64 23.06,-18.26 30.55,-28.22 11.35,-15.15 17.96,-28.44 26.9,-44.91 3.69,-6.78 13.18,-23.11 18.61,-27.63 9.78,9.02 12.69,29.21 10.94,41.89 -4.48,32.45 -30.76,56.2 -62.29,61.85 -5.69,1.02 -11.04,1.42 -16.81,1.47zm6.14 -117.88c1.48,-0.53 2.79,-1.02 4.23,-1.66 0.72,1.07 0.99,1.13 1.83,2.12 16.9,22.4 3.17,57.59 -19.35,70.74 -18.71,10.49 -40.07,5.26 -33.89,-20.53 4.34,-18.16 19.25,-35.27 34.96,-44.84 4.01,-2.39 7.86,-4.19 12.22,-5.83zm-78.75 47.24c0,3.83 -0.36,3.72 0.49,5.43 1.32,-0.53 1.08,0.09 1.98,-5.42 0.37,-2.25 0.67,-3.86 1.12,-6.3 2.77,-14.08 11.51,-29.06 22.59,-38.27 11.06,-9.2 20.32,-12.14 34.57,-12.24 5.04,0 15.37,2.32 17.29,4.94 -25.32,6.67 -53.04,24.55 -56.79,52.59 -2.38,17.74 8.14,32.16 26.71,31.09 2.88,-0.16 5.31,-0.63 8.1,-1.31 24.9,-6.5 42.73,-37.48 38.29,-62.33l-0.22 -1.06c-2.68,-10.4 -3.97,-9.48 -7.69,-16.51 1.72,-0.04 8.21,-1.48 13.83,-1.48 10.5,0 31.28,4.96 36.55,12.84 -8.76,6.58 -21.82,24.45 -28.22,33.94 -9.68,14.5 -16.76,28.96 -25.56,43.7 -6.55,10.97 -17.39,27.06 -31.19,28.46l-0.97 0.1c-7.66,0 -9.03,-0.76 -15.91,-2.38 -1.72,-0.41 -23.61,-5.23 -23.61,1.39l0 1.48c0,5.26 14.64,5.43 19.76,5.43 6.44,0 10.84,-0.99 17.29,-0.99 5.45,0 12.36,-0.14 17.36,0.43 9.29,0.72 27.57,-1.84 36.63,-4.94 34.53,-11.82 59.25,-47.68 50.83,-84.34 -1.76,-7.66 -5.05,-12.88 -9.3,-19.34 -0.45,-0.67 -0.79,-1.25 -1.18,-1.95 4.03,-6.03 17.47,-12.29 18.28,-15.32 -6.81,0.15 -17.53,8.71 -22.23,11.86 -2.71,-1.81 -5.25,-3.94 -8.24,-5.6 -3.1,-1.72 -6.31,-3.03 -9.61,-4.21 -11.47,-4.11 -22.49,-4.69 -34.6,-3.12 -5.6,0.72 -3.61,0.63 -7.65,-1.56 -7.1,-3.86 -14.34,-4.28 -22.39,-4.28 -19.61,0.29 -35.66,12.71 -45.74,28.85 -4.57,7.31 -10.3,22 -10.57,30.42z"/>
   <path class="fil0" d="M429.07 93.23c19.34,-27.81 18.17,-39.4 0.23,-67.59 -2.82,-4.44 -5.99,-8.92 -8.95,-13.29 -1.9,-2.52 -7.69,-10.88 -9.88,-12.35 1.6,4.65 6.58,6.29 7.98,15.64 1.5,19.76 -14.33,44.52 -24.29,61.22 -9.56,16.02 -27.87,41.46 -29.47,59.65 -1.32,26.32 19.38,43.18 40.73,54.1 4.08,2.06 8.37,4 12.95,4.5 -2.91,-5.83 -9.35,-11.5 -13.19,-18.34 -12.02,-21.48 -4.57,-40.58 7.49,-60 5.04,-8.1 10.92,-15.73 16.4,-23.54z"/>
   <path class="fil0" d="M488.46 124.29c1.27,-12.81 -3.28,-22.64 -10.28,-33.01 -2.23,-3.25 -1.71,-1.6 -1.03,1.07 4.04,17.57 -3.56,35.67 -14.89,48.93 -12.37,14.48 -23.94,23.06 -22.21,43.36l0.55 6.52c-2.1,-1.7 45.04,-38.38 47.86,-66.87z"/>
   <path class="fil0" d="M421.42 138.87c-5.87,11.19 -5.89,18.72 0.71,29.75 1.53,2.56 3.29,5.1 6.12,6.24 -2.36,-5.87 -3.09,-7.31 -0.76,-14.25 12.18,-33.04 49.82,-50.07 28.65,-91.56 -1,-1.96 -1.73,-3.2 -3.19,-4.84 0.69,4.55 2.36,3.16 1.91,10.37 -2.15,28.8 -20.61,40.82 -33.44,64.29z"/>
   <path class="fil0" d="M79.01 213.65c-2.48,2.74 -2.66,6.65 -16.77,6.65l3.12 -1.82c1.21,-0.66 2.33,-1.42 3.31,-2.12 2.03,-1.46 3.51,-3.2 5.07,-5.3 7.86,-10.58 11.16,-22.27 17.03,-29.41 0.9,-1.09 1.43,-2.03 2.5,-2.93 0.77,-0.65 1.92,-1.48 2.85,-2.09 1.52,-1.02 2.22,-0.98 3.17,-2.27 -8.35,0.7 -19.08,17.01 -22.89,24.53 -3.41,6.72 -8.84,17.62 -15,20.6 -3.21,1.45 -6.2,-0.58 -7.67,0.35 -0.88,0.55 -1.11,1.8 0.42,1.92 1.09,0.08 3.62,-0.46 4.93,-0.59 0.79,-0.08 1.45,-0.08 2.24,0.01 10.9,1.37 12.71,-0.71 17.53,-5.7 0.01,1.61 0.43,2.97 1.26,4.05 0.84,1.09 1.88,1.63 3.12,1.63 1.17,0 2.37,-0.59 3.62,-1.77 1.23,-1.17 3.02,-3.44 5.36,-6.79 -0.76,1.51 -1.13,2.91 -1.13,4.2 0,1.25 0.34,2.28 1.02,3.12 0.67,0.82 1.55,1.24 2.63,1.24 1.59,0 3.76,-1.71 6.52,-5.12 3.41,-4.16 5.12,-6.5 5.12,-7 0,-0.15 -0.07,-0.22 -0.21,-0.22 -0.12,0 -0.24,0.12 -0.39,0.37 -2.12,3.23 -4.21,5.94 -6.26,8.15 -2.05,2.2 -3.55,3.3 -4.47,3.3 -0.91,0 -1.37,-0.56 -1.37,-1.69 0,-1.17 1.08,-3.6 3.23,-7.29l6.2 -10.54c-1.01,0.17 -1.83,0.26 -2.46,0.26 -0.54,0 -1.16,-0.09 -1.86,-0.26l-1.79 3.49c0.18,-0.68 0.28,-1.2 0.28,-1.62 0,-1.44 -0.72,-2.16 -2.17,-2.16 -1.72,0 -3.96,0.78 -6.74,2.37 -5.52,3.08 -8.63,6.56 -9.35,10.45zm17.76 -10.54c0,-1.18 -0.53,-1.77 -1.59,-1.77 -2.16,0 -4.99,2.16 -8.49,6.49 -3.5,4.32 -5.25,7.8 -5.25,10.47 0,1.56 0.68,2.34 2.04,2.34 1.62,0 4.41,-2.75 8.4,-8.25 3.25,-4.5 4.89,-7.6 4.89,-9.28zm42.77 -19.15c-8.78,14.29 -14.31,23.42 -16.6,27.4 -2.32,4.05 -3.48,6.61 -3.48,7.66 0,1.08 0.48,1.62 1.44,1.62 2.13,0 5.76,-3.82 10.88,-11.45 0.14,-0.25 0.26,-0.37 0.38,-0.37 0.14,0 0.22,0.07 0.22,0.22 -0.03,0.08 -0.15,0.27 -0.36,0.58l-1.52 2.12c-4.43,6.28 -7.71,9.42 -9.83,9.42 -1.08,0 -1.95,-0.42 -2.64,-1.24 -0.68,-0.84 -1.02,-1.89 -1.02,-3.18 0,-1.3 0.42,-2.8 1.27,-4.51 -4.09,5.96 -7.13,8.93 -9.12,8.93 -1.24,0 -2.28,-0.54 -3.12,-1.63 -0.84,-1.1 -1.26,-2.47 -1.26,-4.12 0,-3.95 2.4,-7.53 7.2,-10.74 3.81,-2.57 6.8,-3.84 8.98,-3.84 1.45,0 2.17,0.72 2.17,2.16 0,0.66 -0.2,1.42 -0.6,2.26l12.54 -21.51c0.77,0.24 1.54,0.37 2.28,0.37 0.19,0 0.93,-0.05 2.19,-0.15zm-16.91 19.29c0,-1.27 -0.58,-1.91 -1.73,-1.91 -2.1,0 -4.89,2.15 -8.35,6.46 -3.45,4.31 -5.18,7.78 -5.18,10.42 0,1.61 0.65,2.42 1.93,2.42 1.87,0 5.1,-3.34 9.67,-10 2.43,-3.61 3.66,-6.07 3.66,-7.39zm33.45 5.79c0,0.55 -1.71,2.89 -5.09,7 -2.8,3.41 -5.03,5.12 -6.67,5.12 -1.03,0 -1.89,-0.43 -2.61,-1.28 -0.71,-0.85 -1.07,-1.86 -1.07,-3.07 0,-0.93 0.46,-2.23 1.37,-3.91l-0.7 0.97c-2.15,2.82 -3.74,4.71 -4.75,5.67 -1.1,1.08 -2.14,1.62 -3.13,1.62 -1.03,0 -1.89,-0.42 -2.6,-1.24 -0.71,-0.82 -1.05,-1.84 -1.05,-3.03 0,-1.39 0.52,-2.99 1.58,-4.78l6.4 -10.99c0.8,0.17 1.42,0.26 1.86,0.26 0.45,0 1.24,-0.09 2.39,-0.26l-8.37 14.1c-0.85,1.43 -1.27,2.7 -1.27,3.8 0,1.08 0.44,1.62 1.34,1.62 2.36,0 6.16,-4.51 11.39,-13.55l3.46 -5.97c0.73,0.17 1.33,0.26 1.82,0.26 0.59,0 1.42,-0.09 2.49,-0.26l-5.62 9.38c-2.67,4.46 -4.02,7.33 -4.02,8.6 0,1.03 0.48,1.54 1.44,1.54 1.87,0 4.91,-3.03 9.12,-9.11l1.09 -1.56 0.63 -0.78c0.12,-0.25 0.23,-0.37 0.35,-0.37 0.14,0 0.22,0.07 0.22,0.22zm21.24 0.08c0,0.19 -0.71,1.06 -2.11,2.61 -1.79,2.01 -3.47,3.02 -5.04,3.02 -1.78,0 -2.67,-1.06 -2.67,-3.17 0,-0.67 0.14,-1.52 0.42,-2.55 -1.48,1.31 -2.68,2.63 -3.6,3.92 -0.94,1.3 -2.53,3.94 -4.81,7.91 -1.23,-0.09 -1.97,-0.14 -2.17,-0.14 -0.1,0 -0.82,0.05 -2.15,0.14l5.76 -9.57c2.88,-4.81 4.32,-7.79 4.32,-8.94 0,-0.67 -0.27,-1.01 -0.81,-1.01 -1.3,0 -3.67,2.59 -7.08,7.78 -0.22,0.34 -0.4,0.51 -0.57,0.51 -0.09,-0.02 -0.14,-0.1 -0.14,-0.22 0.02,-0.12 0.07,-0.22 0.14,-0.29l0.64 -0.9c3.6,-4.92 6.03,-7.39 7.31,-7.39 1.87,0 2.81,1.24 2.81,3.71 0,1.84 -0.96,4.28 -2.88,7.34 1.21,-1.45 2.38,-2.62 3.48,-3.54 0.89,-2.13 1.99,-3.91 3.31,-5.35 1.33,-1.44 2.52,-2.16 3.56,-2.16 0.73,0 1.09,0.32 1.09,0.97 0,1.15 -1.63,2.78 -4.89,4.92 -0.52,0.33 -1.3,0.84 -2.33,1.47l-0.42 0.37c-0.32,1.1 -0.49,2.02 -0.49,2.73 0,2.01 0.75,3.02 2.22,3.02 1.83,0 3.84,-1.54 6.01,-4.62 0.47,-0.53 0.75,-0.8 0.87,-0.8 0.15,0 0.22,0.08 0.22,0.23zm18.78 0c0,0.07 -0.21,0.38 -0.63,0.93l-1.51 1.94c-4.85,6.11 -9,9.17 -12.46,9.17 -1.65,0 -3.01,-0.6 -4.13,-1.82 -1.11,-1.2 -1.67,-2.72 -1.67,-4.54 0,-4.31 2.94,-8.1 8.82,-11.38 3.09,-1.73 5.61,-2.59 7.55,-2.59 0.84,0 1.56,0.26 2.16,0.77 0.6,0.52 0.9,1.14 0.9,1.89 0,1.72 -1.1,3.19 -3.3,4.41 -2.19,1.2 -5.86,2.34 -11,3.39 -1.6,2.48 -2.39,4.53 -2.39,6.19 0,2.06 1.09,3.09 3.26,3.09 3.69,0 8.2,-3.7 13.56,-11.1 0.28,-0.38 0.51,-0.58 0.7,-0.58 0.1,0.03 0.14,0.1 0.14,0.23zm-2.91 -6.7c0,-0.77 -0.41,-1.15 -1.24,-1.15 -1.23,0 -2.86,0.88 -4.89,2.65 -2.03,1.76 -4.02,4.05 -5.96,6.85 3.38,-0.88 6.24,-2.13 8.58,-3.75 2.33,-1.62 3.51,-3.16 3.51,-4.6zm15.64 -8.22c0,0.85 -0.35,1.63 -1.04,2.36 -0.68,0.73 -1.44,1.1 -2.27,1.1 -1.05,0 -1.58,-0.54 -1.58,-1.62 0,-0.8 0.36,-1.56 1.09,-2.28 0.73,-0.74 1.49,-1.11 2.29,-1.11 1.01,0 1.51,0.52 1.51,1.55zm0.47 14.84c-0.02,0.08 -0.14,0.27 -0.36,0.58l-1.51 2.12c-4.39,6.28 -7.75,9.42 -10.06,9.42 -1.11,0 -2.02,-0.41 -2.76,-1.2 -0.73,-0.8 -1.1,-1.81 -1.1,-3 0,-1.39 0.8,-3.5 2.42,-6.32l5.49 -9.52c0.73,0.17 1.3,0.26 1.72,0.26 0.63,0 1.52,-0.09 2.67,-0.26l-7.99 13.41c-1.15,1.94 -1.72,3.44 -1.72,4.49 0,1.08 0.55,1.62 1.65,1.62 2.08,0 5.75,-3.82 10.99,-11.45 0.12,-0.25 0.22,-0.37 0.34,-0.37 0.15,0 0.22,0.07 0.22,0.22zm21.31 0.08c0,0.19 -0.7,1.06 -2.11,2.61 -1.78,2.01 -3.46,3.02 -5.03,3.02 -1.79,0 -2.68,-1.06 -2.68,-3.17 0,-0.67 0.15,-1.52 0.42,-2.55 -1.47,1.31 -2.67,2.63 -3.6,3.92 -0.93,1.3 -2.53,3.94 -4.8,7.91 -1.24,-0.09 -1.97,-0.14 -2.17,-0.14 -0.1,0 -0.82,0.05 -2.15,0.14l5.75 -9.57c2.88,-4.81 4.32,-7.79 4.32,-8.94 0,-0.67 -0.26,-1.01 -0.8,-1.01 -1.31,0 -3.67,2.59 -7.09,7.78 -0.21,0.34 -0.39,0.51 -0.56,0.51 -0.1,-0.02 -0.15,-0.1 -0.15,-0.22 0.03,-0.12 0.08,-0.22 0.15,-0.29l0.63 -0.9c3.6,-4.92 6.04,-7.39 7.32,-7.39 1.87,0 2.8,1.24 2.8,3.71 0,1.84 -0.95,4.28 -2.87,7.34 1.21,-1.45 2.37,-2.62 3.47,-3.54 0.89,-2.13 2,-3.91 3.31,-5.35 1.34,-1.44 2.52,-2.16 3.57,-2.16 0.73,0 1.09,0.32 1.09,0.97 0,1.15 -1.63,2.78 -4.9,4.92 -0.51,0.33 -1.29,0.84 -2.32,1.47l-0.42 0.37c-0.33,1.1 -0.49,2.02 -0.49,2.73 0,2.01 0.74,3.02 2.22,3.02 1.83,0 3.83,-1.54 6,-4.62 0.47,-0.53 0.76,-0.8 0.88,-0.8 0.14,0 0.21,0.08 0.21,0.23zm25.77 -0.08c0,0.5 -1.72,2.84 -5.12,7 -2.76,3.41 -4.93,5.12 -6.53,5.12 -1.08,0 -1.95,-0.42 -2.62,-1.24 -0.69,-0.84 -1.02,-1.87 -1.02,-3.12 0,-1.29 0.37,-2.69 1.13,-4.2 -2.34,3.35 -4.13,5.62 -5.37,6.79 -1.24,1.18 -2.44,1.77 -3.62,1.77 -1.23,0 -2.28,-0.54 -3.12,-1.63 -0.83,-1.1 -1.25,-2.47 -1.25,-4.12 0,-4.6 3.16,-8.66 9.51,-12.21 2.78,-1.59 5.02,-2.37 6.74,-2.37 1.45,0 2.17,0.72 2.17,2.16 0,0.42 -0.1,0.94 -0.28,1.62l1.79 -3.49c0.69,0.17 1.32,0.26 1.86,0.26 0.63,0 1.45,-0.09 2.45,-0.26l-6.2 10.54c-2.14,3.69 -3.22,6.12 -3.22,7.29 0,1.13 0.45,1.69 1.37,1.69 0.92,0 2.42,-1.1 4.47,-3.3 2.05,-2.21 4.14,-4.92 6.26,-8.15 0.14,-0.25 0.26,-0.37 0.38,-0.37 0.15,0 0.22,0.07 0.22,0.22zm-9.61 -5.93c0,-1.18 -0.52,-1.77 -1.58,-1.77 -2.16,0 -4.99,2.16 -8.49,6.49 -3.5,4.32 -5.25,7.8 -5.25,10.47 0,1.56 0.68,2.34 2.04,2.34 1.61,0 4.41,-2.75 8.4,-8.25 3.25,-4.5 4.88,-7.6 4.88,-9.28z"/>
   <path class="fil0" d="M66.19 177.82l-4.93 9.39c-1.06,2.37 -1.97,5.02 -2.83,7.48 -1.77,5.04 -3.45,10.23 -5.46,15.18 -1.97,4.84 -2.75,6.12 -6.5,9.56 -0.69,0.63 -1.33,1.64 0.22,1.18 3.57,-1.05 6.65,-3.46 9.36,-5.93 4.69,-4.29 9.06,-9.68 12.92,-14.74 0.87,-1.13 1.73,-2.27 2.59,-3.42 6.39,-8.54 15.93,-20.94 27.28,-23.1 7.25,-1.37 14.34,1.55 16.35,7.76 0.96,2.97 0.13,4.76 -0.1,7.51 1.55,-1.13 1.81,-3.5 1.31,-6.23 -1.18,-6.42 -6.27,-10.55 -13.65,-10.59 -14.93,-0.08 -24.2,13.03 -32.18,23.66 -1.23,1.63 -2.25,3.28 -3.54,4.86 -0.94,1.16 -1.85,2.4 -2.77,3.58 -2.34,3.01 -4.82,6.15 -7.41,8.96 -1.26,1.36 -2.42,2.6 -4.08,3.5 -2.31,1.26 0.56,-1.63 0.7,-1.76 5.41,-5.11 9.63,-21.48 11.84,-28.92 0.15,-0.48 0.29,-0.97 0.45,-1.45 1.01,-3.19 2.09,-5.61 3.83,-8.44 0.15,-0.24 1.02,-1.6 0.99,-1.82 -0.05,-0.36 -0.96,-0.05 -1.15,0.04 -0.63,0.3 -1.07,0.86 -1.69,1.25 -0.67,0.43 -1.09,0.73 -1.7,1.26 -3.51,3.07 -6.9,8.45 -9.45,12.41 -0.19,0.29 -0.38,0.58 -0.57,0.87 -7,10.65 -19.13,34.61 -37.14,30.32 -3.8,-0.9 -6.53,-2.36 -6.53,-7.3 0.08,0.09 0.18,0.13 0.21,0.29 0.31,1.49 2.47,1.69 3.74,1.69 3.24,-4.84 0.55,-4.94 -2.96,-4.94 -1.23,1.83 -4.29,5.92 0.46,9.41 9.98,7.32 25.83,-1.28 33.13,-11.39 4.91,-6.8 14.65,-27.04 19.26,-30.13z"/>
   <path class="fil0" d="M20.26 188.69c0,13.27 11.96,11.41 16.8,7.91 1.11,-0.79 1.57,-1.35 2.59,-2.35 1.18,-1.17 1.9,-1.46 2.34,-3.09 -1.53,0.55 -1.46,1.78 -4.53,3.86 -9.16,6.23 -16.22,0.94 -16.22,-3.86 0,-8.4 3.56,-12.37 10.57,-17.1 6.09,-4.12 17.59,-5.25 17.59,0.3 0,3.72 -4.88,7.62 -2.82,12.18 2.63,5.84 11.27,1.07 12.7,-4.28 -2.17,0.58 -4.34,5.93 -8.4,5.93 -5.73,0 -0.71,-7.7 -0.07,-9.97 3.1,-10.89 -12.78,-11.81 -23.27,-2.5 -2.86,2.54 -7.28,7.9 -7.28,12.97z"/>
   <polygon class="fil0" points="475.18,86.93 475.18,86.44 474.6,86.85 "/>
   <polygon class="fil0" points="452.95,64.21 452.95,63.72 452.37,64.13 "/>
   <polygon class="fil0" points="476.66,89.4 476.17,88.42 "/>
   <polygon class="fil0" points="476.17,88.42 475.67,87.43 "/>
   <polygon class="fil0" points="475.67,87.43 475.18,86.93 "/>
   <path class="fil0" d="M309.92 191.25c0.95,0.06 1.89,0.18 2.82,0.35 0.91,0.16 1.81,0.33 2.71,0.52l0.17 -0.44c-0.95,-0.26 -1.91,-0.5 -2.87,-0.71 -1.02,-0.21 -2.05,-0.38 -3.08,-0.5l-0.01 0 -0.01 0c-0.95,-0.17 -1.91,-0.28 -2.87,-0.34 -0.91,-0.05 -1.82,-0.08 -2.72,-0.08 -3.3,0 -6.62,0.35 -9.79,1.26 -2.83,0.8 -5.49,2.03 -7.86,3.77 -2.06,1.5 -3.88,3.33 -5.12,5.57 -1.16,2.08 -1.7,4.32 -1.7,6.7 0,1.4 0.24,2.76 0.8,4.05 0.56,1.29 1.42,2.38 2.47,3.3 1.16,1.07 2.54,1.86 4,2.44 1.75,0.7 3.59,1.16 5.45,1.47l0.68 0.11 -0.42 0.55c-1.23,1.64 -2.42,3.32 -3.52,5.05 -0.95,1.5 -1.83,3.06 -2.59,4.68 -0.65,1.38 -1.2,2.82 -1.55,4.31 -0.31,1.29 -0.49,2.61 -0.49,3.94 0,1.48 0.2,2.98 0.76,4.36 0.5,1.26 1.26,2.34 2.26,3.25 1.12,0.92 2.43,1.53 3.83,1.92 1.71,0.46 3.53,0.62 5.3,0.62 1.52,0 3.04,-0.18 4.53,-0.5 1.6,-0.35 3.18,-0.8 4.72,-1.35 1.62,-0.66 3.18,-1.44 4.68,-2.35 1.51,-0.91 2.93,-1.96 4.27,-3.11 0.81,-0.73 1.6,-1.51 2.33,-2.34 0.62,-0.72 1.19,-1.49 1.66,-2.32 0.45,-0.78 0.83,-1.6 1.08,-2.47 0.22,-0.73 0.36,-1.5 0.36,-2.27 0,-0.91 -0.14,-1.84 -0.51,-2.68 -0.33,-0.77 -0.84,-1.41 -1.5,-1.93l-0.01 -0.01c-0.69,-0.6 -1.48,-1.04 -2.35,-1.32 -1,-0.34 -2.07,-0.45 -3.12,-0.45 -2.01,0 -3.96,0.39 -5.83,1.16 -2.07,0.84 -3.94,2.15 -5.63,3.59 -1.9,1.63 -3.54,3.5 -4.92,5.58 -1.39,2.11 -2.55,4.35 -3.52,6.68l0.53 0.14c1.12,-2.26 2.42,-4.43 3.93,-6.45 1.43,-1.9 3.03,-3.69 4.85,-5.22 1.63,-1.38 3.43,-2.57 5.39,-3.43 1.7,-0.75 3.5,-1.19 5.37,-1.19 0.86,0 1.76,0.09 2.58,0.36 0.74,0.24 1.41,0.61 2.01,1.1 0.58,0.47 1.05,1.05 1.37,1.72 0.32,0.69 0.45,1.43 0.45,2.18 0,0.95 -0.19,1.87 -0.53,2.75 -0.38,1.03 -0.98,1.99 -1.63,2.87 -0.73,0.99 -1.55,1.91 -2.42,2.78 -1.01,1.01 -2.16,1.89 -3.35,2.69 -1.13,0.76 -2.32,1.45 -3.53,2.07 -1.26,0.64 -2.56,1.19 -3.89,1.64l-0.01 0.01c-1.3,0.38 -2.62,0.72 -3.95,0.98 -1.26,0.26 -2.55,0.4 -3.83,0.4 -1.3,0 -2.61,-0.14 -3.86,-0.49 -1.08,-0.3 -2.1,-0.78 -2.98,-1.48 -0.78,-0.63 -1.42,-1.38 -1.86,-2.27 -0.46,-0.94 -0.63,-1.97 -0.63,-3 0,-1.44 0.27,-2.88 0.69,-4.26 0.49,-1.61 1.21,-3.16 2.03,-4.64 1.03,-1.83 2.23,-3.59 3.48,-5.28 1.58,-2.12 3.29,-4.16 5.06,-6.12l0.12 -0.13 0.17 -0.01c2.25,-0.12 4.49,-0.33 6.71,-0.64 2.31,-0.32 4.6,-0.76 6.86,-1.31 2.29,-0.61 4.56,-1.33 6.78,-2.16 2.23,-0.83 4.42,-1.76 6.54,-2.83 2.24,-1.14 4.42,-2.43 6.48,-3.89 1.75,-1.25 3.41,-2.64 4.89,-4.21 1.19,-1.22 2.36,-2.6 3.18,-4.09 0.6,-1.08 1.03,-2.29 1.03,-3.54 0,-0.58 -0.09,-1.17 -0.37,-1.68 -0.26,-0.49 -0.66,-0.89 -1.11,-1.21 -0.56,-0.35 -1.19,-0.59 -1.83,-0.75 -0.83,-0.23 -1.74,-0.29 -2.6,-0.29 -2.85,0 -5.75,0.72 -8.43,1.68 -3.59,1.29 -7.07,3.17 -10.32,5.16 -3.88,2.38 -7.57,5.07 -11.06,7.98 -3.86,3.2 -7.49,6.69 -10.91,10.35l-0.14 0.15 -0.2 -0.01c-1.85,-0.16 -3.7,-0.48 -5.47,-1.05 -1.51,-0.48 -2.94,-1.19 -4.16,-2.2 -1.09,-0.83 -2.01,-1.85 -2.65,-3.07 -0.64,-1.21 -0.93,-2.53 -0.93,-3.9 0,-2.24 0.66,-4.3 1.86,-6.19 1.37,-2.16 3.31,-3.94 5.4,-5.4 2.42,-1.69 5.07,-2.94 7.9,-3.77 3,-0.88 6.12,-1.25 9.23,-1.25 0.79,0 1.58,0.03 2.37,0.09 0.83,0.06 1.67,0.15 2.5,0.25zm28.6 2.81c0.41,0.29 0.71,0.69 0.92,1.14 0.24,0.55 0.33,1.16 0.33,1.75 0,1.19 -0.57,2.37 -1.19,3.34 -0.91,1.41 -2.13,2.71 -3.35,3.86 -1.49,1.52 -3.16,2.85 -4.93,4.02 -2,1.31 -4.1,2.46 -6.26,3.48 -1.93,0.91 -3.9,1.73 -5.9,2.48 -1.96,0.74 -3.96,1.4 -5.99,1.97 -2.02,0.51 -4.06,0.93 -6.11,1.25 -1.95,0.3 -3.92,0.49 -5.89,0.55l-0.96 0.03 0.63 -0.72c3.05,-3.49 6.25,-6.85 9.65,-10 2.98,-2.76 6.15,-5.32 9.5,-7.62 2.71,-1.86 5.66,-3.65 8.74,-4.86 2.29,-0.91 4.82,-1.61 7.31,-1.61 0.68,0 1.4,0.05 2.06,0.23 0.52,0.14 1.02,0.36 1.44,0.71zm35.08 31.77c-0.16,0.05 -0.29,0.13 -0.41,0.24 -0.14,0.12 -0.28,0.26 -0.39,0.42l-0.02 0.04 -0.03 0.03c-0.12,0.12 -0.22,0.26 -0.28,0.42 -0.07,0.15 -0.1,0.31 -0.1,0.48 0,0.2 0.04,0.4 0.13,0.58 0.08,0.18 0.2,0.34 0.34,0.49 0.11,0.11 0.25,0.18 0.41,0.22 0.23,0.05 0.47,0.08 0.7,0.08 0.53,0 1.04,-0.11 1.52,-0.35 0.52,-0.24 0.95,-0.61 1.33,-1.04l0 -0.01 0.01 -0.01c0.42,-0.43 0.77,-0.92 0.99,-1.48 0.21,-0.52 0.31,-1.07 0.31,-1.64 0,-0.42 -0.07,-0.85 -0.22,-1.25 -0.16,-0.4 -0.45,-0.71 -0.78,-0.97l-0.01 -0.01 -0.01 -0.01c-0.37,-0.32 -0.8,-0.54 -1.27,-0.68 -0.55,-0.17 -1.13,-0.23 -1.7,-0.23 -1.04,0 -2.1,0.21 -3.09,0.49 -1.34,0.38 -2.64,0.91 -3.89,1.51 -1.39,0.67 -2.71,1.47 -3.98,2.35 -1.32,0.92 -2.56,1.94 -3.74,3.03l-0.01 0.01c-1.25,1.05 -2.4,2.2 -3.45,3.45 -1.02,1.2 -1.89,2.51 -2.61,3.92l-0.01 0.02c-0.4,0.71 -0.78,1.44 -1.1,2.2l-0.03 0.09 -0.08 0.07c-0.66,0.55 -1.33,1.1 -2,1.64 -1.44,1.14 -2.88,2.26 -4.34,3.37 -1.05,0.74 -2.17,1.49 -3.32,2.04 -0.65,0.32 -1.53,0.68 -2.26,0.68 -0.25,0 -0.5,-0.03 -0.74,-0.1 -0.18,-0.05 -0.37,-0.11 -0.53,-0.2l-0.13 -0.06 -0.06 -0.13c-0.07,-0.13 -0.12,-0.27 -0.18,-0.41 -0.09,-0.22 -0.11,-0.47 -0.11,-0.71 0,-0.48 0.29,-1.09 0.5,-1.51 0.4,-0.78 0.9,-1.55 1.38,-2.28l0.09 -0.17 13.27 -18.2 -3.45 0 -2.89 4.16 0 -2.11c0,-0.47 -0.04,-0.99 -0.18,-1.44 -0.12,-0.35 -0.31,-0.64 -0.58,-0.88l-0.02 -0.01 -0.01 -0.01c-0.27,-0.27 -0.62,-0.46 -0.97,-0.58 -0.47,-0.17 -0.98,-0.23 -1.48,-0.23 -1,0 -2.01,0.16 -2.97,0.41 -1.21,0.31 -2.38,0.75 -3.52,1.25 -1.26,0.56 -2.48,1.21 -3.65,1.94 -1.24,0.77 -2.43,1.63 -3.58,2.53 -1.52,1.18 -2.98,2.46 -4.33,3.84 -1.23,1.25 -2.32,2.63 -3.23,4.14 -0.84,1.31 -1.58,2.71 -2.08,4.18 -0.42,1.21 -0.69,2.49 -0.69,3.78 0,0.55 0.06,1.13 0.23,1.66 0.15,0.44 0.39,0.83 0.71,1.17 0.36,0.26 0.77,0.46 1.19,0.61 0.51,0.17 1.07,0.23 1.61,0.23 0.93,0 1.87,-0.18 2.75,-0.45 1.13,-0.34 2.23,-0.8 3.3,-1.29 0.4,-0.24 0.79,-0.47 1.18,-0.71 0.43,-0.27 0.86,-0.54 1.28,-0.8 0.84,-0.58 1.64,-1.21 2.41,-1.89 0.83,-0.73 1.64,-1.48 2.44,-2.24l1.04 -1 -0.34 1.4c-0.1,0.43 -0.22,0.86 -0.34,1.29 -0.1,0.37 -0.21,0.73 -0.32,1.1 -0.05,0.3 -0.11,0.61 -0.17,0.91 -0.05,0.26 -0.07,0.52 -0.07,0.78 0,0.43 0.05,0.86 0.19,1.27 0.1,0.33 0.26,0.62 0.49,0.87 0.29,0.19 0.6,0.34 0.93,0.43 0.39,0.12 0.81,0.16 1.21,0.16 0.89,0 1.86,-0.3 2.68,-0.61 1.28,-0.49 2.52,-1.21 3.67,-1.96 1.57,-1.04 3.06,-2.21 4.51,-3.41l0.89 -0.74 -0.21 1.14c-0.12,0.65 -0.18,1.32 -0.18,1.99 0,0.62 0.06,1.25 0.23,1.85 0.15,0.51 0.43,0.96 0.8,1.34 0.39,0.34 0.86,0.56 1.34,0.72 0.63,0.2 1.3,0.27 1.95,0.27 1.34,0 2.69,-0.31 3.95,-0.74 1.72,-0.59 3.41,-1.44 4.99,-2.35 1.98,-1.26 3.89,-2.66 5.74,-4.1 1.06,-0.82 2.08,-1.67 3.09,-2.54l1.42 -1.23 -0.76 1.72c-0.24,0.54 -0.46,1.09 -0.64,1.66 -0.37,1.12 -0.61,2.3 -0.61,3.49 0,0.59 0.09,1.17 0.31,1.72 0.2,0.52 0.51,0.98 0.89,1.38 0.39,0.34 0.85,0.58 1.32,0.77 0.6,0.23 1.26,0.31 1.89,0.31 1.36,0 2.7,-0.28 3.98,-0.74 1.56,-0.56 3.05,-1.41 4.42,-2.33 0.47,-0.41 0.96,-0.81 1.46,-1.19 0.52,-0.39 1.03,-0.81 1.51,-1.25 1.08,-0.99 2.11,-2.04 3.09,-3.13 1.06,-1.17 2.06,-2.38 3.02,-3.63l0.24 -0.32 0.33 0.22c0.14,0.1 0.29,0.2 0.44,0.29 0.12,0.07 0.24,0.13 0.37,0.17l0.06 0.02 0.05 0.03c0.11,0.09 0.24,0.16 0.38,0.22 0.13,0.05 0.26,0.1 0.4,0.15 0.32,0.05 0.64,0.11 0.96,0.16 0.31,0.06 0.62,0.08 0.93,0.08 0.44,0 0.88,-0.02 1.32,-0.08l0.87 -0.12 -0.4 0.73c-0.48,0.89 -0.91,1.81 -1.23,2.76 -0.43,1.21 -0.69,2.49 -0.69,3.78 0,0.55 0.06,1.13 0.23,1.66 0.15,0.44 0.38,0.83 0.71,1.17 0.36,0.26 0.77,0.46 1.19,0.61 0.51,0.17 1.07,0.23 1.61,0.23 0.93,0 1.86,-0.18 2.75,-0.45 1.13,-0.34 2.23,-0.8 3.3,-1.29 0.4,-0.24 0.79,-0.47 1.18,-0.71 0.43,-0.27 0.86,-0.54 1.28,-0.8 0.84,-0.58 1.64,-1.21 2.41,-1.89 0.83,-0.73 1.64,-1.48 2.44,-2.24l1.04 -1 -0.34 1.4c-0.11,0.43 -0.22,0.86 -0.34,1.29 -0.1,0.37 -0.21,0.73 -0.32,1.1 -0.05,0.3 -0.11,0.61 -0.17,0.91 -0.05,0.26 -0.07,0.52 -0.07,0.78 0,0.43 0.05,0.86 0.18,1.27 0.11,0.33 0.27,0.62 0.5,0.87 0.29,0.19 0.6,0.34 0.93,0.43 0.39,0.12 0.81,0.16 1.21,0.16 0.89,0 1.86,-0.3 2.68,-0.61 1.28,-0.49 2.52,-1.21 3.67,-1.96 1.59,-1.06 3.11,-2.25 4.58,-3.47 0.42,-0.35 0.84,-0.71 1.26,-1.08l1.42 -1.24 -0.76 1.73c-0.56,1.27 -1.16,2.91 -1.16,4.32 0,0.43 0.06,0.85 0.22,1.25 0.12,0.31 0.29,0.61 0.54,0.81l0.02 0.02 0.02 0.01c0.24,0.26 0.54,0.45 0.86,0.59 0.39,0.17 0.83,0.22 1.25,0.22 0.97,0 1.98,-0.29 2.88,-0.65 1.3,-0.51 2.55,-1.24 3.71,-2 1.52,-1.06 2.96,-2.27 4.32,-3.54 1.63,-1.51 3.17,-3.13 4.66,-4.79l-0.43 -0.44c-1.55,1.48 -3.11,2.94 -4.71,4.36 -1.33,1.19 -2.69,2.36 -4.09,3.47l-0.02 0.01c-1.07,0.77 -2.21,1.52 -3.38,2.12 -0.74,0.38 -1.68,0.77 -2.52,0.77 -0.22,0 -0.42,-0.03 -0.62,-0.12 -0.2,-0.08 -0.37,-0.21 -0.48,-0.39 -0.11,-0.12 -0.21,-0.26 -0.28,-0.41 -0.09,-0.19 -0.13,-0.4 -0.13,-0.61 0,-0.64 0.43,-1.57 0.71,-2.14 0.59,-1.21 1.31,-2.39 2.02,-3.53 1.1,-1.77 2.3,-3.49 3.51,-5.18 1.69,-2.35 3.34,-4.73 4.99,-7.11l0.77 -1.1 0 0.62c4.6,-3.24 9.13,-6.6 13.5,-10.13 3.73,-3.01 7.4,-6.14 10.84,-9.47 2.41,-2.34 4.95,-4.95 6.9,-7.7 0.92,-1.31 2.21,-3.37 2.21,-5.04 0,-0.26 -0.03,-0.57 -0.13,-0.81 -0.1,-0.22 -0.24,-0.41 -0.4,-0.58 -0.19,-0.14 -0.4,-0.26 -0.63,-0.35 -0.27,-0.11 -0.62,-0.14 -0.92,-0.14 -1.25,0 -2.75,0.66 -3.84,1.23 -1.95,1.02 -3.83,2.35 -5.55,3.71 -2.33,1.82 -4.53,3.82 -6.63,5.89 -2.44,2.41 -4.73,5 -6.96,7.6 -3.25,3.78 -6.48,7.59 -9.52,11.53 -2.43,3.14 -4.79,6.37 -6.93,9.73 -0.84,1.24 -1.64,2.5 -2.41,3.79l-0.03 0.05 -0.05 0.05c-1.51,1.34 -3.04,2.66 -4.63,3.92 -1.43,1.14 -2.87,2.26 -4.34,3.37 -1.04,0.74 -2.16,1.49 -3.31,2.04 -0.65,0.32 -1.53,0.68 -2.26,0.68 -0.25,0 -0.5,-0.03 -0.74,-0.1 -0.18,-0.05 -0.37,-0.11 -0.53,-0.2l-0.13 -0.06 -0.06 -0.13c-0.07,-0.13 -0.13,-0.27 -0.18,-0.41 -0.09,-0.22 -0.11,-0.47 -0.11,-0.71 0,-0.48 0.29,-1.09 0.5,-1.51 0.4,-0.78 0.89,-1.55 1.38,-2.28l0.09 -0.17 13.27 -18.2 -3.45 0 -2.89 4.16 0 -2.11c0,-0.47 -0.04,-0.99 -0.18,-1.44 -0.12,-0.35 -0.31,-0.64 -0.59,-0.88l-0.01 -0.01 -0.01 -0.01c-0.27,-0.27 -0.62,-0.46 -0.97,-0.58 -0.47,-0.17 -0.98,-0.23 -1.48,-0.23 -1,0 -2.01,0.16 -2.97,0.41 -1.21,0.31 -2.38,0.75 -3.52,1.25 -1.26,0.56 -2.48,1.21 -3.65,1.94 -1.24,0.77 -2.43,1.63 -3.58,2.53 -1.52,1.18 -2.98,2.46 -4.33,3.84 -1.17,1.2 -2.23,2.51 -3.11,3.94l-0.07 0.12 -0.24 0.09 -0.03 0.01c-0.32,0.07 -0.64,0.11 -0.97,0.14 -0.34,0.02 -0.69,0.04 -1.03,0.04 -0.15,0 -0.31,0 -0.46,0 -0.16,0 -0.32,-0.03 -0.47,-0.09 -0.12,0 -0.24,-0.02 -0.36,-0.05 -0.13,-0.02 -0.25,-0.03 -0.38,-0.03l-0.1 0 -0.09 -0.05c-0.23,-0.12 -0.47,-0.22 -0.72,-0.32 -0.32,-0.14 -0.62,-0.33 -0.9,-0.55l-0.29 -0.23 0.2 -0.32c0.57,-0.89 1.11,-1.8 1.62,-2.73 0.47,-0.85 0.91,-1.72 1.31,-2.6 0.3,-0.78 0.57,-1.57 0.77,-2.37 0.16,-0.65 0.28,-1.32 0.28,-1.99 0,-0.4 -0.07,-0.81 -0.25,-1.18 -0.18,-0.36 -0.42,-0.69 -0.7,-0.98 -0.31,-0.26 -0.65,-0.45 -1.03,-0.6 -0.43,-0.16 -0.89,-0.22 -1.35,-0.22 -1.03,0 -2.05,0.17 -3.04,0.45 -1.21,0.34 -2.39,0.83 -3.51,1.38l-0.01 0 -0.02 0.01c-0.25,0.1 -0.5,0.22 -0.74,0.36 -0.26,0.15 -0.53,0.28 -0.81,0.39 -1.03,0.59 -2.02,1.22 -2.99,1.89 -1.09,0.75 -2.15,1.56 -3.17,2.41 -1.37,1.12 -2.66,2.36 -3.82,3.7 -0.7,0.79 -1.35,1.62 -1.97,2.48l-0.02 0.04 -0.04 0.03c-1.98,1.72 -4.01,3.39 -6.1,4.96 -1.83,1.38 -3.69,2.72 -5.6,3.98l-0.01 0.01c-1.53,0.93 -3.15,1.82 -4.81,2.5 -1.11,0.45 -2.43,0.88 -3.65,0.88 -0.44,0 -0.89,-0.05 -1.3,-0.19 -0.33,-0.11 -0.66,-0.27 -0.94,-0.48 -0.33,-0.21 -0.59,-0.5 -0.73,-0.87 -0.15,-0.38 -0.2,-0.78 -0.2,-1.18 0,-0.63 0.24,-1.31 0.5,-1.88 0.38,-0.86 0.89,-1.71 1.39,-2.51 0.62,-1.07 1.32,-2.09 2.07,-3.06 0.85,-1.12 1.77,-2.19 2.72,-3.22 0.43,-0.55 0.9,-1.09 1.39,-1.59 0.49,-0.5 0.97,-1 1.46,-1.5 0.92,-0.89 1.86,-1.76 2.8,-2.61 0.91,-0.81 1.84,-1.59 2.83,-2.29 1.23,-0.88 2.56,-1.72 3.94,-2.34 0.96,-0.43 2.07,-0.81 3.13,-0.81 0.3,0 0.6,0.05 0.88,0.17 0.2,0.09 0.39,0.2 0.55,0.36 0.21,0.14 0.37,0.33 0.49,0.56 0.1,0.22 0.16,0.45 0.16,0.7 0,0.53 -0.3,0.93 -0.73,1.21 -0.49,0.3 -1.12,0.46 -1.68,0.56 -0.2,0.05 -0.4,0.1 -0.6,0.13 -0.14,0.03 -0.28,0.05 -0.42,0.05zm-29.06 -3.63c0.2,0.02 0.4,0.06 0.59,0.13 0.3,0.1 0.57,0.26 0.79,0.49 0.21,0.21 0.37,0.46 0.47,0.74 0.11,0.29 0.15,0.6 0.15,0.91 0,0.76 -0.25,1.56 -0.53,2.25 -0.41,1.02 -1.01,2.02 -1.62,2.93 -0.8,1.2 -1.69,2.34 -2.61,3.44 -1.12,1.34 -2.3,2.62 -3.51,3.86 -1.26,1.34 -2.57,2.63 -3.94,3.86 -1.19,1.06 -2.46,2.06 -3.8,2.93 -1.12,0.7 -2.3,1.36 -3.53,1.83 -0.93,0.36 -1.94,0.63 -2.94,0.63 -0.27,0 -0.56,-0.03 -0.82,-0.11 -0.24,-0.07 -0.46,-0.17 -0.66,-0.31l-0.04 -0.02 -0.03 -0.03c-0.15,-0.16 -0.27,-0.34 -0.36,-0.54 -0.12,-0.24 -0.17,-0.51 -0.17,-0.78 0,-0.82 0.31,-1.67 0.67,-2.4 0.51,-1.05 1.16,-2.07 1.82,-3.03 0.88,-1.3 1.85,-2.54 2.85,-3.74 1.22,-1.47 2.52,-2.88 3.85,-4.24 1.16,-1.24 2.37,-2.45 3.64,-3.6 1.12,-1.01 2.31,-1.95 3.58,-2.76 0.97,-0.7 2.02,-1.35 3.11,-1.83 0.81,-0.35 1.7,-0.64 2.59,-0.71l0.45 -0.04 0 0.14zm49.71 7.91c-0.09,0.25 -0.16,0.52 -0.21,0.79 -0.06,0.29 -0.08,0.6 -0.08,0.9 0,0.1 0.02,0.21 0.03,0.3 0.03,0.15 0.07,0.29 0.12,0.42l0.02 0.07 0 0.06c0,0.12 0.02,0.25 0.03,0.36 0.02,0.1 0.05,0.22 0.09,0.31l0.04 0.09 0 0.09c0.01,0.03 0.02,0.07 0.03,0.09 0.03,0.11 0.06,0.23 0.06,0.34l0 0.15 -0.1 0.12c-1.54,1.88 -3.15,3.73 -4.85,5.48 -1.32,1.36 -2.72,2.68 -4.2,3.87l-0.02 0.01c-1.2,0.87 -2.49,1.67 -3.86,2.26 -1.12,0.48 -2.32,0.8 -3.54,0.8 -0.45,0 -0.9,-0.05 -1.33,-0.19 -0.39,-0.12 -0.75,-0.31 -1.03,-0.6 -0.31,-0.25 -0.55,-0.56 -0.69,-0.92 -0.15,-0.38 -0.2,-0.78 -0.2,-1.18 0,-0.77 0.3,-1.58 0.62,-2.27 0.48,-1.01 1.13,-2 1.78,-2.91 0.8,-1.26 1.72,-2.44 2.7,-3.57 1.16,-1.35 2.37,-2.67 3.59,-3.98l0.01 -0.01 0.01 -0.01c1.27,-1.19 2.54,-2.39 3.83,-3.58 1.1,-1.01 2.28,-1.96 3.54,-2.76 0.96,-0.69 2.02,-1.35 3.12,-1.79 0.78,-0.32 1.67,-0.59 2.53,-0.59 0.3,0 0.61,0.05 0.9,0.16 0.28,0.11 0.52,0.27 0.73,0.48 0.22,0.23 0.38,0.5 0.47,0.8 0.1,0.31 0.15,0.62 0.15,0.94 0,0.06 0,0.12 0,0.17 0,0.06 0,0.12 0,0.18l0 0.09 -0.04 0.09c-0.02,0.03 -0.04,0.07 -0.05,0.09 0.01,0.04 0.01,0.09 0.01,0.15 0,0.04 0,0.09 0,0.13 0,0.04 0,0.08 0,0.13l0 0.17 -0.09 0.08 0 0.38 -0.37 0.04c-0.51,0.05 -0.97,0.24 -1.39,0.53 -0.53,0.35 -0.96,0.88 -1.3,1.41 -0.2,0.31 -0.39,0.63 -0.57,0.95 -0.15,0.3 -0.32,0.59 -0.49,0.88zm28.79 -7.91c0.2,0.02 0.4,0.06 0.59,0.13 0.3,0.1 0.57,0.26 0.79,0.49 0.21,0.21 0.36,0.46 0.47,0.74 0.1,0.29 0.15,0.6 0.15,0.91 0,0.76 -0.25,1.56 -0.53,2.25 -0.41,1.02 -1.01,2.02 -1.62,2.93 -0.8,1.2 -1.69,2.34 -2.61,3.44 -1.12,1.34 -2.3,2.62 -3.52,3.86 -1.25,1.34 -2.56,2.63 -3.93,3.86 -1.19,1.06 -2.46,2.06 -3.8,2.93 -1.12,0.7 -2.3,1.36 -3.53,1.83 -0.93,0.36 -1.94,0.63 -2.94,0.63 -0.27,0 -0.56,-0.03 -0.82,-0.11 -0.24,-0.07 -0.46,-0.17 -0.66,-0.31l-0.04 -0.02 -0.03 -0.03c-0.15,-0.16 -0.27,-0.34 -0.37,-0.54 -0.11,-0.24 -0.16,-0.51 -0.16,-0.78 0,-0.82 0.31,-1.67 0.66,-2.4 0.52,-1.05 1.16,-2.07 1.82,-3.03 0.89,-1.3 1.86,-2.54 2.86,-3.74 1.22,-1.47 2.52,-2.88 3.85,-4.24 1.16,-1.24 2.37,-2.45 3.64,-3.6 1.12,-1.01 2.31,-1.95 3.58,-2.76 0.97,-0.7 2.02,-1.35 3.11,-1.83 0.81,-0.35 1.7,-0.64 2.59,-0.71l0.45 -0.04 0 0.14zm52.47 -28.4c0.2,0.13 0.32,0.33 0.39,0.55 0.09,0.26 0.11,0.55 0.11,0.81 0,1.39 -1.34,3.35 -2.12,4.43 -1.78,2.45 -4.07,4.77 -6.25,6.86 -2.96,2.98 -6.11,5.78 -9.35,8.46 -3.73,3.09 -7.6,6.01 -11.56,8.8l-1.91 1.35 1.32 -1.93c2.82,-4.12 5.74,-8.18 8.81,-12.12 2.53,-3.26 5.18,-6.49 8.01,-9.49 2.02,-2.13 4.24,-4.31 6.59,-6.05 1.22,-0.91 3.05,-2.09 4.62,-2.09 0.27,0 0.55,0.02 0.8,0.11 0.2,0.07 0.39,0.17 0.54,0.31z"/>
  </g>
 </g>
</svg>
